<mxfile host="app.diagrams.net" modified="2023-04-20T19:21:57.106Z" agent="Mozilla/5.0 (Windows NT 10.0; Win64; x64) AppleWebKit/537.36 (KHTML, like Gecko) Chrome/111.0.0.0 Safari/537.36" version="21.2.1" etag="DOV3zR8Lk5mzTvKD_mQB" type="github">
  <diagram name="Page-1" id="Nm1gLl8dbxmBiURFkgwG">
    <mxGraphModel>
      <root>
        <mxCell id="0" />
        <mxCell id="1" parent="0" />
      </root>
    </mxGraphModel>
  </diagram>
</mxfile>
